<svg xmlns="http://www.w3.org/2000/svg" xmlns:xlink="http://www.w3.org/1999/xlink" viewBox="0 0 71.6 43.22"><defs><style>.cls-1{fill:#fff;}.cls-10,.cls-2,.cls-3,.cls-4,.cls-5,.cls-6,.cls-8{fill:none;stroke-miterlimit:10;}.cls-2{stroke:url(#linear-gradient);}.cls-3{stroke:url(#linear-gradient-2);}.cls-4{stroke:url(#linear-gradient-3);}.cls-5{stroke:url(#linear-gradient-4);}.cls-6{stroke:url(#linear-gradient-5);}.cls-7{fill:url(#linear-gradient-6);}.cls-8{stroke:url(#linear-gradient-7);}.cls-9{fill:url(#linear-gradient-8);}.cls-10{stroke:url(#linear-gradient-9);}</style><linearGradient id="linear-gradient" x1="9.81" y1="7.8" x2="34.14" y2="7.8" gradientUnits="userSpaceOnUse"><stop offset="0" stop-color="#5e68b0"/><stop offset="1" stop-color="#80c9df"/></linearGradient><linearGradient id="linear-gradient-2" x1="8.83" y1="28.04" x2="31.35" y2="28.04" xlink:href="#linear-gradient"/><linearGradient id="linear-gradient-3" x1="4.53" y1="20.97" x2="25.12" y2="20.97" xlink:href="#linear-gradient"/><linearGradient id="linear-gradient-4" x1="1.64" y1="38.02" x2="34.04" y2="38.02" xlink:href="#linear-gradient"/><linearGradient id="linear-gradient-5" x1="0" y1="14.69" x2="17.92" y2="14.69" xlink:href="#linear-gradient"/><linearGradient id="linear-gradient-6" x1="34.39" y1="34.05" x2="31.82" y2="36.62" gradientUnits="userSpaceOnUse"><stop offset="0" stop-color="#5e68b0"/><stop offset="0.16" stop-color="#657cba"/><stop offset="0.53" stop-color="#74a6ce"/><stop offset="0.82" stop-color="#7dbfda"/><stop offset="1" stop-color="#80c9df"/></linearGradient><linearGradient id="linear-gradient-7" x1="34.75" y1="33.7" x2="31.47" y2="36.97" gradientUnits="userSpaceOnUse"><stop offset="0" stop-color="#5e68b0"/><stop offset="0.15" stop-color="#657bb9"/><stop offset="0.53" stop-color="#73a5ce"/><stop offset="0.82" stop-color="#7dbfda"/><stop offset="1" stop-color="#80c9df"/></linearGradient><linearGradient id="linear-gradient-8" x1="27.09" y1="7.13" x2="24.51" y2="9.7" xlink:href="#linear-gradient-6"/><linearGradient id="linear-gradient-9" x1="27.44" y1="6.78" x2="24.16" y2="10.06" xlink:href="#linear-gradient-7"/></defs><title>Asset 4</title><g id="Layer_2" data-name="Layer 2"><g id="Layer_3" data-name="Layer 3"><path class="cls-1" d="M39,25.88a5,5,0,0,1-2.13.39,3.78,3.78,0,0,1-4-4.09,4,4,0,0,1,4.23-4.25,4.35,4.35,0,0,1,1.91.36l-.25.85a3.82,3.82,0,0,0-1.63-.33A3,3,0,0,0,34,22.14a2.94,2.94,0,0,0,3.1,3.25,4.27,4.27,0,0,0,1.71-.33Z"/><path class="cls-1" d="M41.46,18.71a.66.66,0,0,1-1.31,0,.65.65,0,0,1,.66-.66A.63.63,0,0,1,41.46,18.71Zm-1.18,7.44V20.34h1.06v5.81Z"/><path class="cls-1" d="M43,25.07a2.79,2.79,0,0,0,1.39.42c.76,0,1.12-.39,1.12-.86s-.3-.78-1.07-1.07c-1-.37-1.54-.95-1.54-1.65a1.79,1.79,0,0,1,2-1.7,2.91,2.91,0,0,1,1.43.36l-.26.77A2.22,2.22,0,0,0,44.83,21c-.63,0-1,.36-1,.79s.34.7,1.1,1c1,.38,1.52.89,1.52,1.75,0,1-.79,1.74-2.17,1.74a3.33,3.33,0,0,1-1.63-.4Z"/><path class="cls-1" d="M53.09,23.2a2.84,2.84,0,0,1-2.89,3.08,2.76,2.76,0,0,1-2.78-3,2.83,2.83,0,0,1,2.88-3.08A2.74,2.74,0,0,1,53.09,23.2Zm-4.6.06c0,1.27.73,2.23,1.76,2.23S52,24.54,52,23.23c0-1-.5-2.23-1.74-2.23S48.49,22.15,48.49,23.26Z"/><path class="cls-1" d="M54.43,17.63h1v8.52h-1Z"/><path class="cls-1" d="M58.44,18.71a.66.66,0,0,1-1.31,0,.65.65,0,0,1,.66-.66A.63.63,0,0,1,58.44,18.71Zm-1.18,7.44V20.34h1.06v5.81Z"/><path class="cls-1" d="M60.07,21.91c0-.6,0-1.09,0-1.57H61l.06,1h0A2.14,2.14,0,0,1,63,20.21c.8,0,2.05.48,2.05,2.47v3.47H64V22.8c0-.93-.34-1.71-1.34-1.71a1.5,1.5,0,0,0-1.41,1.08,1.44,1.44,0,0,0-.08.49v3.49h-1Z"/><path class="cls-1" d="M67.77,23h0a7.77,7.77,0,0,1,.51-.66l1.71-2h1.27L69,22.73l2.56,3.42H70.31l-2-2.78-.54.6v2.18h-1V17.63h1Z"/><path class="cls-2" d="M21.3.55C21,.29,33.81,7.81,33.64,8.12s-5.49,6-6,6.34-8-4.69-8.36-4.69-9.08,5.42-9,5.28"/><path class="cls-3" d="M9.33,18.59v8.76c0,.29,9.86,5.76,10.12,5.76s7.87-4.81,8.17-4.81A26.28,26.28,0,0,1,30.85,32c0,.32-10.16,6.09-9.57,5.72"/><path class="cls-4" d="M17.6,37.56C17.88,37.84,5,30.22,5,29.91V12.41c0-.38,14.06-8,14.35-8s5.48,3.3,5.48,3.3"/><path class="cls-5" d="M33.8,35.12s-14,7.6-14.34,7.6S1.64,33.09,2.15,33.32"/><path class="cls-6" d="M.5,28.85V10.38C.5,9.47,18.27,0,17.39.52"/><path class="cls-7" d="M34.39,36.62a1.82,1.82,0,1,1,0-2.57A1.82,1.82,0,0,1,34.39,36.62Z"/><path class="cls-8" d="M31.82,36.62a1.82,1.82,0,1,1,2.57,0A1.83,1.83,0,0,1,31.82,36.62Z"/><circle class="cls-9" cx="25.8" cy="8.42" r="1.82"/><circle class="cls-10" cx="25.8" cy="8.42" r="1.82"/></g></g></svg>